<svg viewBox="0 0 906 906"
    xmlns="http://www.w3.org/2000/svg">
    <defs>
        <style>.cls-1{fill:#1a1a1a;}.cls-2{fill:#adde00;}.cls-3{fill:#fff;}.cls-4{fill:#91bd00;}.cls-5{fill:#e2e2e2;stroke:#b6b6b6;stroke-miterlimit:10;}</style>
    </defs>
    <circle class="cls-1" cx="453" cy="453" r="453"/>
    <path class="cls-2" d="M144.08,336a31.6,31.6,0,0,1-31.71-32.33c.45-17.19,15-30.67,32.21-30.67H468c17.2,0,24,63,24,63Z"/>
    <path class="cls-2" d="M144.08,633a31.5,31.5,0,1,1,0-63H435c17.52,0,20.29,11.56,22,29,1.27,13-10,34-10,34Z"/>
    <path class="cls-2" d="M145.21,485a31.5,31.5,0,0,1-31.49-32.33c.44-17.19,15-30.67,32.2-30.67H362c17.19,0,29.67,63,12,63Z"/>
    <path class="cls-3" d="M349.83,828.3C138.54,770.41,14.19,552.2,72.07,340.91S348.17,5.26,559.46,63.15c153.87,42.16-30.13,76-105,76.19C284.2,138.81,145.73,276.41,145.19,446.7S282.27,755.45,452.55,756c89.79.28,172.85,53.16,116.45,70C492,849,425,848.89,349.83,828.3Z"/>
    <path class="cls-4" d="M301.58,336c7.42-28,17.42-56,26.21-63H597c17.2,0,32.53,13.81,33,31,.46,17.78-14.58,32-32.26,32H301.58Z"/>
    <path class="cls-4" d="M312.74,632.53c-8.29-20-14.5-41.55-19.74-62.53H601c17.4,0,30,14.6,30,32,0,24-15.84,32-33.24,32h0Z"/>
    <path class="cls-4" d="M281.36,422H465.94c17.4,0,35.81,6.67,35.81,33.49,0,21.84-18.43,29.5-35.81,29.51H279V470A432.11,432.11,0,0,1,281.36,422Z"/>
    <path class="cls-5" d="M748.18,534c9.87-39.25,40.51-51.11,65.82-39,28,11,29,28,24.68,50.18C796.74,707.24,657.12,826.11,490.35,841.37,455.29,821.92,404.2,778.71,379,747,557.77,778.09,699.36,695.51,748.18,534Z"/>
    <path class="cls-5" d="M848.5,395c-9.76-156.64-167.65-332.34-346-343-37.35,19-90.12,62.13-117,94.5,36-7,46-6.55,59-7,173-6,283.26,87.46,315,261.51,1.83,5.68,4.7,27.55,23,36C822.12,454,851.68,421.07,848.5,395Z"/>
</svg>